<svg width="21" height="20" viewBox="0 0 21 20" fill="none" xmlns="http://www.w3.org/2000/svg">
<g clip-path="url(#clip0_580_1187)">
<path d="M4.75005 4.38921C4.75005 3.35415 5.15041 2.36149 5.86305 1.62959C6.57568 0.897688 7.54223 0.486511 8.55005 0.486511H12.3501C13.3579 0.486511 14.3244 0.897688 15.0371 1.62959C15.7497 2.36149 16.1501 3.35415 16.1501 4.38921V6.34057H19.9501C20.088 6.34063 20.2242 6.37153 20.3493 6.43111C20.4744 6.4907 20.5854 6.57754 20.6745 6.68561C20.7636 6.79368 20.8288 6.92038 20.8654 7.05691C20.9021 7.19345 20.9094 7.33654 20.8868 7.47625L19.3839 16.7393C19.2359 17.6502 18.7783 18.4778 18.0922 19.0748C17.4062 19.6718 16.5363 19.9997 15.6371 20H5.26305C4.36368 19.9999 3.4935 19.6722 2.80727 19.0751C2.12104 18.4781 1.66325 17.6504 1.5153 16.7393L0.013351 7.47625C-0.00926482 7.33654 -0.00199368 7.19345 0.0346595 7.05691C0.0713127 6.92038 0.136469 6.79368 0.225602 6.68561C0.314735 6.57754 0.425708 6.4907 0.550811 6.43111C0.675915 6.37153 0.812149 6.34063 0.950051 6.34057H4.75005V4.38921ZM6.65005 6.34057H11.4001C11.652 6.34057 11.8936 6.44336 12.0718 6.62633C12.25 6.80931 12.3501 7.05748 12.3501 7.31624C12.3501 7.57501 12.25 7.82317 12.0718 8.00615C11.8936 8.18912 11.652 8.29192 11.4001 8.29192H2.07105L3.3906 16.4183C3.46453 16.8736 3.69322 17.2873 4.03604 17.5858C4.37886 17.8842 4.81361 18.0483 5.26305 18.0487H15.6371C16.0867 18.0485 16.5216 17.8846 16.8646 17.5861C17.2077 17.2876 17.4365 16.8738 17.5105 16.4183L18.8291 8.29192H15.2001C14.9481 8.29192 14.7065 8.18912 14.5283 8.00615C14.3501 7.82317 14.2501 7.57501 14.2501 7.31624V4.38921C14.2501 3.87168 14.0499 3.37535 13.6936 3.0094C13.3372 2.64345 12.854 2.43786 12.3501 2.43786H8.55005C8.04614 2.43786 7.56287 2.64345 7.20655 3.0094C6.85023 3.37535 6.65005 3.87168 6.65005 4.38921V6.34057Z" fill="white"/>
</g>
<defs>
<clipPath id="clip0_580_1187">
<rect width="20.9" height="19.5135" fill="white" transform="translate(0 0.486511)"/>
</clipPath>
</defs>
</svg>
