<svg width="20" height="19" viewBox="0 0 20 19" fill="none" xmlns="http://www.w3.org/2000/svg">
<path d="M1.06191 19C0.708003 19 0.421059 18.7132 0.420899 18.3593C0.420738 18.0052 0.707614 17.7181 1.06163 17.718L18.7752 17.7103H18.7755C19.1294 17.7103 19.4163 17.9971 19.4165 18.351C19.4167 18.705 19.1298 18.9921 18.7758 18.9923L1.06221 19H1.06191ZM5.33445 15.3447C5.33445 15.7224 5.02539 16.0315 4.64766 16.0315H3.27406C2.89632 16.0315 2.58726 15.7224 2.58726 15.3447V5.76379C2.58726 5.38605 2.89632 5.07699 3.27406 5.07699H4.64766C5.02539 5.07699 5.33445 5.38605 5.33445 5.76379V15.3447ZM11.2544 15.3447C11.2544 15.7224 10.9453 16.0315 10.5676 16.0315H9.19398C8.81624 16.0315 8.50718 15.7224 8.50718 15.3447V0.686797C8.50718 0.309059 8.81624 0 9.19398 0H10.5676C10.9453 0 11.2544 0.309059 11.2544 0.686797V15.3447ZM17.2261 15.3447C17.2261 15.7224 16.917 16.0315 16.5393 16.0315H15.1657C14.7879 16.0315 14.4789 15.7224 14.4789 15.3447V8.699C14.4789 8.32126 14.7879 8.0122 15.1657 8.0122H16.5393C16.917 8.0122 17.2261 8.32126 17.2261 8.699V15.3447Z" fill="white"/>
</svg>
