<svg width="22" height="19" viewBox="0 0 22 19" fill="none" xmlns="http://www.w3.org/2000/svg">
<path d="M6 2C4.93913 2 3.92172 2.42143 3.17157 3.17157C2.42143 3.92172 2 4.93913 2 6C2 9.552 4.218 12.296 6.621 14.22C7.968 15.2883 9.43814 16.1914 11 16.91C12.5609 16.1908 14.0303 15.2878 15.377 14.22C17.78 12.294 20 9.551 20 6C20 4.93913 19.5786 3.92172 18.8284 3.17157C18.0783 2.42143 17.0609 2 16 2C14.043 2 12.348 3.396 11.98 5.2C11.9341 5.42606 11.8115 5.62929 11.6329 5.77528C11.4542 5.92126 11.2307 6.001 11 6.001C10.7693 6.001 10.5458 5.92126 10.3671 5.77528C10.1885 5.62929 10.0659 5.42606 10.02 5.2C9.652 3.396 7.957 2 6 2ZM11 19C10.684 18.98 10.44 18.853 10.152 18.722C8.4467 17.9355 6.84162 16.9478 5.371 15.78C2.777 13.705 0 10.449 0 6C0 4.4087 0.632141 2.88258 1.75736 1.75736C2.88258 0.632141 4.4087 0 6 0C6.97704 0.0025466 7.93957 0.236602 8.80868 0.682979C9.6778 1.12936 10.4288 1.77535 11 2.568C11.5712 1.77535 12.3222 1.12936 13.1913 0.682979C14.0604 0.236602 15.023 0.0025466 16 0C17.5913 0 19.1174 0.632141 20.2426 1.75736C21.3679 2.88258 22 4.4087 22 6C22 10.448 19.22 13.705 16.625 15.78C15.1544 16.9473 13.5497 17.935 11.845 18.722C11.302 18.971 11.113 19 11 19Z" fill="white"/>
</svg>
