<svg width="19" height="19" viewBox="0 0 19 19" fill="none" xmlns="http://www.w3.org/2000/svg">
<g clip-path="url(#clip0_580_1169)">
<path d="M7.7805 0C12.0498 0 15.561 3.53305 15.561 7.82895C15.561 9.73845 14.896 11.4579 13.7579 12.7936L18.7862 17.7584C19.0712 18.0452 19.0712 18.5222 18.7862 18.809C18.5962 19 18.4062 19 18.2172 19C18.0272 19 17.8372 18.905 17.6472 18.809L12.6188 13.8443C11.2907 14.99 9.58265 15.6588 7.6855 15.6588C6.3574 15.6588 5.02835 15.276 3.89025 14.7031C3.51025 14.5132 3.41525 14.0353 3.60525 13.6534C3.72962 13.4775 3.91281 13.3519 4.12171 13.2993C4.33061 13.2467 4.55144 13.2705 4.7443 13.3665C5.69335 13.9393 6.73645 14.1303 7.7805 14.1303C11.2907 14.1303 14.042 11.2661 14.042 7.82895C14.042 4.39185 11.1957 1.5276 7.7805 1.5276C4.3643 1.5276 1.5181 4.39185 1.5181 7.82895C1.5181 8.97465 1.8031 10.0253 2.37215 10.9801C2.56215 11.362 2.46715 11.8389 2.08715 12.0299C1.70715 12.2208 1.2331 12.1249 1.04405 11.7439C0.37905 10.5023 0 9.1656 0 7.8299C0 3.5321 3.51025 0 7.7805 0Z" fill="white"/>
</g>
<defs>
<clipPath id="clip0_580_1169">
<rect width="19" height="19" fill="white"/>
</clipPath>
</defs>
</svg>
