<svg aria-hidden="true" xmlns="http://www.w3.org/2000/svg" xmlns:xlink="http://www.w3.org/1999/xlink"><symbol viewBox="0 0 11 11" fill="none" id="arrow" xmlns="http://www.w3.org/2000/svg">
<path fill-rule="evenodd" clip-rule="evenodd" d="M0.0211858 0.922049V1.8441H4.38475H7.84771L3.92385 5.76812L0 9.69215L0.653926 10.3461L1.30785 11L5.23188 7.07615L9.1559 3.15229V6.61525V10.9788H10.078H11V5.0391V0H5.9609H0.0211858V0.922049Z" fill="currentColor"/>
</symbol><symbol viewBox="0 0 21 20" fill="none" id="cart" xmlns="http://www.w3.org/2000/svg">
<g clip-path="url(#bclip0_580_1187)">
<path d="M4.75005 4.38921C4.75005 3.35415 5.15041 2.36149 5.86305 1.62959C6.57568 0.897688 7.54223 0.486511 8.55005 0.486511H12.3501C13.3579 0.486511 14.3244 0.897688 15.0371 1.62959C15.7497 2.36149 16.1501 3.35415 16.1501 4.38921V6.34057H19.9501C20.088 6.34063 20.2242 6.37153 20.3493 6.43111C20.4744 6.4907 20.5854 6.57754 20.6745 6.68561C20.7636 6.79368 20.8288 6.92038 20.8654 7.05691C20.9021 7.19345 20.9094 7.33654 20.8868 7.47625L19.3839 16.7393C19.2359 17.6502 18.7783 18.4778 18.0922 19.0748C17.4062 19.6718 16.5363 19.9997 15.6371 20H5.26305C4.36368 19.9999 3.4935 19.6722 2.80727 19.0751C2.12104 18.4781 1.66325 17.6504 1.5153 16.7393L0.013351 7.47625C-0.00926482 7.33654 -0.00199368 7.19345 0.0346595 7.05691C0.0713127 6.92038 0.136469 6.79368 0.225602 6.68561C0.314735 6.57754 0.425708 6.4907 0.550811 6.43111C0.675915 6.37153 0.812149 6.34063 0.950051 6.34057H4.75005V4.38921ZM6.65005 6.34057H11.4001C11.652 6.34057 11.8936 6.44336 12.0718 6.62633C12.25 6.80931 12.3501 7.05748 12.3501 7.31624C12.3501 7.57501 12.25 7.82317 12.0718 8.00615C11.8936 8.18912 11.652 8.29192 11.4001 8.29192H2.07105L3.3906 16.4183C3.46453 16.8736 3.69322 17.2873 4.03604 17.5858C4.37886 17.8842 4.81361 18.0483 5.26305 18.0487H15.6371C16.0867 18.0485 16.5216 17.8846 16.8646 17.5861C17.2077 17.2876 17.4365 16.8738 17.5105 16.4183L18.8291 8.29192H15.2001C14.9481 8.29192 14.7065 8.18912 14.5283 8.00615C14.3501 7.82317 14.2501 7.57501 14.2501 7.31624V4.38921C14.2501 3.87168 14.0499 3.37535 13.6936 3.0094C13.3372 2.64345 12.854 2.43786 12.3501 2.43786H8.55005C8.04614 2.43786 7.56287 2.64345 7.20655 3.0094C6.85023 3.37535 6.65005 3.87168 6.65005 4.38921V6.34057Z" fill="currentColor"/>
</g>
<defs>
<clipPath id="bclip0_580_1187">
<rect width="20.9" height="19.5135" fill="currentColor" transform="translate(0 0.486511)"/>
</clipPath>
</defs>
</symbol><symbol viewBox="0 0 11 11" fill="none" id="catalog" xmlns="http://www.w3.org/2000/svg">
<path d="M0 0H3.47368V3.47368H0V0Z" fill="currentColor"/>
<path d="M7.52632 0H11V3.47368H7.52632V0Z" fill="currentColor"/>
<path d="M0 7.52632H3.47368V11H0V7.52632Z" fill="currentColor"/>
<path d="M7.52632 7.52632H11V11H7.52632V7.52632Z" fill="currentColor"/>
</symbol><symbol viewBox="0 0 20 19" fill="none" id="compare" xmlns="http://www.w3.org/2000/svg">
<path d="M1.06191 19C0.708003 19 0.421059 18.7132 0.420899 18.3593C0.420738 18.0052 0.707614 17.7181 1.06163 17.718L18.7752 17.7103H18.7755C19.1294 17.7103 19.4163 17.9971 19.4165 18.351C19.4167 18.705 19.1298 18.9921 18.7758 18.9923L1.06221 19H1.06191ZM5.33445 15.3447C5.33445 15.7224 5.02539 16.0315 4.64766 16.0315H3.27406C2.89632 16.0315 2.58726 15.7224 2.58726 15.3447V5.76379C2.58726 5.38605 2.89632 5.07699 3.27406 5.07699H4.64766C5.02539 5.07699 5.33445 5.38605 5.33445 5.76379V15.3447ZM11.2544 15.3447C11.2544 15.7224 10.9453 16.0315 10.5676 16.0315H9.19398C8.81624 16.0315 8.50718 15.7224 8.50718 15.3447V0.686797C8.50718 0.309059 8.81624 0 9.19398 0H10.5676C10.9453 0 11.2544 0.309059 11.2544 0.686797V15.3447ZM17.2261 15.3447C17.2261 15.7224 16.917 16.0315 16.5393 16.0315H15.1657C14.7879 16.0315 14.4789 15.7224 14.4789 15.3447V8.699C14.4789 8.32126 14.7879 8.0122 15.1657 8.0122H16.5393C16.917 8.0122 17.2261 8.32126 17.2261 8.699V15.3447Z" fill="currentColor"/>
</symbol><symbol viewBox="0 0 22 19" fill="none" id="favorites" xmlns="http://www.w3.org/2000/svg">
<path d="M6 2C4.93913 2 3.92172 2.42143 3.17157 3.17157C2.42143 3.92172 2 4.93913 2 6C2 9.552 4.218 12.296 6.621 14.22C7.968 15.2883 9.43814 16.1914 11 16.91C12.5609 16.1908 14.0303 15.2878 15.377 14.22C17.78 12.294 20 9.551 20 6C20 4.93913 19.5786 3.92172 18.8284 3.17157C18.0783 2.42143 17.0609 2 16 2C14.043 2 12.348 3.396 11.98 5.2C11.9341 5.42606 11.8115 5.62929 11.6329 5.77528C11.4542 5.92126 11.2307 6.001 11 6.001C10.7693 6.001 10.5458 5.92126 10.3671 5.77528C10.1885 5.62929 10.0659 5.42606 10.02 5.2C9.652 3.396 7.957 2 6 2ZM11 19C10.684 18.98 10.44 18.853 10.152 18.722C8.4467 17.9355 6.84162 16.9478 5.371 15.78C2.777 13.705 0 10.449 0 6C0 4.4087 0.632141 2.88258 1.75736 1.75736C2.88258 0.632141 4.4087 0 6 0C6.97704 0.0025466 7.93957 0.236602 8.80868 0.682979C9.6778 1.12936 10.4288 1.77535 11 2.568C11.5712 1.77535 12.3222 1.12936 13.1913 0.682979C14.0604 0.236602 15.023 0.0025466 16 0C17.5913 0 19.1174 0.632141 20.2426 1.75736C21.3679 2.88258 22 4.4087 22 6C22 10.448 19.22 13.705 16.625 15.78C15.1544 16.9473 13.5497 17.935 11.845 18.722C11.302 18.971 11.113 19 11 19Z" fill="currentColor"/>
</symbol><symbol viewBox="0 0 19 19" fill="none" id="search" xmlns="http://www.w3.org/2000/svg">
<g clip-path="url(#fclip0_580_1169)">
<path d="M7.7805 0C12.0498 0 15.561 3.53305 15.561 7.82895C15.561 9.73845 14.896 11.4579 13.7579 12.7936L18.7862 17.7584C19.0712 18.0452 19.0712 18.5222 18.7862 18.809C18.5962 19 18.4062 19 18.2172 19C18.0272 19 17.8372 18.905 17.6472 18.809L12.6188 13.8443C11.2907 14.99 9.58265 15.6588 7.6855 15.6588C6.3574 15.6588 5.02835 15.276 3.89025 14.7031C3.51025 14.5132 3.41525 14.0353 3.60525 13.6534C3.72962 13.4775 3.91281 13.3519 4.12171 13.2993C4.33061 13.2467 4.55144 13.2705 4.7443 13.3665C5.69335 13.9393 6.73645 14.1303 7.7805 14.1303C11.2907 14.1303 14.042 11.2661 14.042 7.82895C14.042 4.39185 11.1957 1.5276 7.7805 1.5276C4.3643 1.5276 1.5181 4.39185 1.5181 7.82895C1.5181 8.97465 1.8031 10.0253 2.37215 10.9801C2.56215 11.362 2.46715 11.8389 2.08715 12.0299C1.70715 12.2208 1.2331 12.1249 1.04405 11.7439C0.37905 10.5023 0 9.1656 0 7.8299C0 3.5321 3.51025 0 7.7805 0Z" fill="currentColor"/>
</g>
<defs>
<clipPath id="fclip0_580_1169">
<rect width="19" height="19" fill="currentColor"/>
</clipPath>
</defs>
</symbol><symbol viewBox="0 0 19 19" fill="none" id="telegram" xmlns="http://www.w3.org/2000/svg">
<path d="M17.6601 0.119866L0.463401 10.0409C-0.208144 10.4268 -0.122809 11.3617 0.545025 11.6437L4.48896 13.2985L15.1483 3.90426C15.3524 3.72246 15.6418 4.00073 15.4674 4.21221L6.52956 15.1016V18.0883C6.52956 18.9639 7.58697 19.309 8.1064 18.6745L10.4624 15.8066L15.0853 17.7433C15.6121 17.9659 16.2132 17.6357 16.3096 17.068L18.981 1.03999C19.1071 0.290535 18.302 -0.251153 17.6601 0.119866Z" fill="currentColor"/>
</symbol><symbol viewBox="0 0 19 19" fill="none" id="whatsapp" xmlns="http://www.w3.org/2000/svg">
<path d="M16.1542 2.76094C14.3772 0.979687 12.0107 0 9.49576 0C4.30469 0 0.0805804 4.22411 0.0805804 9.41518C0.0805804 11.0734 0.51317 12.6935 1.33594 14.1228L0 19L4.99174 17.6895C6.36585 18.4402 7.91384 18.8346 9.49152 18.8346H9.49576C14.6826 18.8346 19 14.6105 19 9.41942C19 6.90446 17.9312 4.54219 16.1542 2.76094ZM9.49576 17.2484C8.08772 17.2484 6.70937 16.871 5.50915 16.1585L5.225 15.9888L2.26473 16.765L3.05357 13.8768L2.86696 13.5799C2.08237 12.333 1.67098 10.8953 1.67098 9.41518C1.67098 5.10201 5.18259 1.5904 9.5 1.5904C11.5908 1.5904 13.5545 2.40469 15.0304 3.88482C16.5062 5.36495 17.4138 7.32857 17.4096 9.41942C17.4096 13.7368 13.8089 17.2484 9.49576 17.2484ZM13.7877 11.3873C13.5545 11.2685 12.3967 10.7002 12.1804 10.6239C11.9641 10.5433 11.8071 10.5051 11.6502 10.7426C11.4933 10.9801 11.0437 11.506 10.9038 11.6672C10.7681 11.8241 10.6281 11.8453 10.3949 11.7266C9.01228 11.0353 8.10469 10.4924 7.19286 8.92745C6.95112 8.51183 7.4346 8.54152 7.88415 7.64241C7.96049 7.48549 7.92232 7.34978 7.86295 7.23103C7.80357 7.11228 7.33281 5.95446 7.13772 5.48371C6.94688 5.02567 6.75179 5.08929 6.60759 5.0808C6.47187 5.07232 6.31495 5.07232 6.15804 5.07232C6.00112 5.07232 5.74665 5.1317 5.53036 5.36495C5.31406 5.60246 4.70759 6.17076 4.70759 7.32857C4.70759 8.48638 5.55156 9.60603 5.66607 9.76295C5.78482 9.91987 7.32433 12.2949 9.68661 13.317C11.1795 13.9616 11.7647 14.0167 12.5112 13.9065C12.965 13.8386 13.9022 13.3382 14.0973 12.7868C14.2924 12.2355 14.2924 11.7647 14.233 11.6672C14.1779 11.5612 14.021 11.5018 13.7877 11.3873Z" fill="currentColor"/>
</symbol></svg>