<svg width="130" height="130" viewBox="0 0 130 130" fill="none" xmlns="http://www.w3.org/2000/svg">
<circle cx="65" cy="65" r="65" fill="#222222"/>
<path d="M125 65C125 98.1371 98.1371 125 65 125C31.8629 125 5 98.1371 5 65C5 31.8629 31.8629 5 65 5C98.1371 5 125 31.8629 125 65Z" fill="#222222"/>
<path fill-rule="evenodd" clip-rule="evenodd" d="M65 123.5C97.3087 123.5 123.5 97.3087 123.5 65C123.5 32.6913 97.3087 6.5 65 6.5C32.6913 6.5 6.5 32.6913 6.5 65C6.5 97.3087 32.6913 123.5 65 123.5ZM65 125C98.1371 125 125 98.1371 125 65C125 31.8629 98.1371 5 65 5C31.8629 5 5 31.8629 5 65C5 98.1371 31.8629 125 65 125Z" fill="#E6D391"/>
<path d="M46.574 80.8997C46.0072 80.7402 45.4936 80.4575 45.0769 80.0288C44.6139 79.5537 44.3191 78.9455 44.1634 78.273L49.3583 73.5095C49.6452 73.3195 50.2204 73.2277 50.5972 73.5568C52.1857 74.9483 51.8111 75.8113 51.6452 76.0314C51.6206 76.0694 46.574 80.8995 46.574 80.8995L46.574 80.8997ZM54.8239 77.466C54.3618 77.0766 53.4714 76.9705 52.9634 77.3353L48.1702 81.8707C48.3533 82.4617 48.6513 82.9975 49.0754 83.4317C49.5167 83.8841 50.059 84.1831 50.6518 84.3509L55.3966 79.5054C55.5964 79.2171 55.57 78.0959 54.8238 77.4659L54.8239 77.466ZM58.3071 81.3218C57.5859 80.6512 56.8999 80.7402 56.6408 80.8074L52.1731 85.3696C52.3743 85.9179 53.9209 88 55.8352 88C57.9947 88 59.179 86.4093 59.2067 86.375C59.3551 84.8052 59.2424 82.1904 58.3071 81.3219V81.3218ZM45.7259 70.6821C44.9996 70.1635 44.3859 70.1736 43.8366 70.6951L40.7673 73.3116C40.8962 74.2901 41.298 75.1832 41.9687 75.8715C42.3228 76.2358 42.7358 76.5144 43.1808 76.7202L47.3853 72.741C47.2379 72.3257 46.8208 71.4622 45.726 70.6821L45.7259 70.6821ZM74.5809 46.202C71.169 45.8127 64.3092 47.2574 63.5601 47.9086C60.7333 50.3638 54.392 53.2018 54.392 53.2018C54.3804 54.2266 54.5255 56.4705 55.8803 57.7835C58.1515 59.9838 63.327 57.1823 65.1304 55.9174L65.4266 55.7088C65.4266 55.7088 69.3136 56.526 70.6137 57.4933C72.3565 58.7902 81.1594 67.5514 84.6402 71.0344C84.6402 70.9779 84.648 70.9195 84.6462 70.8629L89.7294 67.7681L84.3389 49.3051C81.5332 47.4367 76.6461 46.4379 74.5803 46.2025L74.5809 46.202ZM105.777 62.7535L100.543 43.7636C100.46 43.4628 99.4354 42.9075 99.1582 43.0132C99.1582 43.0132 86.4263 47.8827 86.3349 47.9598C86.321 47.9505 86.3062 47.9417 86.2923 47.9319L91.6829 66.395L91.9225 66.249C91.9225 66.249 92.8384 68.2559 93.0873 68.3723L94.0917 68.8405C94.3401 68.9573 94.6229 68.9675 94.8792 68.8701L104.61 65.1835C104.867 65.0861 105.854 63.0319 105.777 62.7534L105.777 62.7535ZM65.7813 57.673C64.3 58.6413 58.0486 62.3933 54.7063 59.1544C52.253 56.7761 52.6651 52.6263 52.6836 52.4512L52.7429 51.8964L55.6412 50.6871L55.181 50.175L40.7036 47.14L36.273 72.5005C37.3747 72.596 38.2823 72.6729 38.6916 72.7035L42.8149 69.1883C43.1722 68.8703 44.9692 67.9113 46.6958 69.141C47.8578 69.9693 48.4868 70.9182 48.8195 71.6258C49.6877 71.3681 50.8046 71.3375 51.7048 72.1259C52.9993 73.2592 53.4433 74.4198 53.4897 75.3659C54.2476 75.2982 55.176 75.3965 55.9074 76.0134C56.9363 76.8806 57.1839 78.0287 57.1899 78.9163C57.8421 78.9478 58.6546 79.1815 59.4541 79.9244C61.4292 81.7581 60.898 86.8576 60.8868 86.9021C62.123 87.3772 66.0605 87.3049 67.4278 85.2288L61.5501 80.5052C61.1659 80.196 61.0898 79.6148 61.38 79.2055C61.6706 78.7976 62.2162 78.7151 62.6018 79.0247L69.4881 84.559C70.4776 84.4561 71.3365 84.255 72.0271 83.9393C73.1919 83.4081 73.8658 82.6716 74.2556 81.9852L66.6958 75.91C66.3116 75.6013 66.2356 75.0196 66.5262 74.6118C66.8145 74.2039 67.3623 74.1214 67.7466 74.431L75.7128 80.8325C76.5527 80.4366 77.4061 79.9476 78.066 79.3512C78.6876 78.7889 79.1465 78.0983 79.4515 77.2941L71.9506 71.2662C71.5663 70.9575 71.4903 70.3758 71.7805 69.968C72.0697 69.5592 72.6166 69.4785 73.0013 69.7872L81.0177 76.23C81.9252 75.9203 82.772 75.5138 83.2722 74.9817C83.858 74.3587 84.1589 73.8197 84.3327 73.275C79.6433 68.5701 71.1819 60.1812 69.6145 59.0137C68.9289 58.5015 67.03 57.9536 65.7812 57.6722L65.7813 57.673ZM30.2483 44.8035C29.9669 44.7525 28.8234 45.3833 28.7757 45.6809L25.0157 68.8902C24.9652 69.2012 25.0375 69.5183 25.2164 69.7695C25.2164 69.7695 26.3998 71.2004 26.7028 71.2267C26.7534 71.2309 31.012 71.6119 33.9178 71.8631L38.3484 46.5026L30.2483 44.8035Z" fill="#EFEFEF"/>
</svg>
