<svg width="130" height="130" viewBox="0 0 130 130" fill="none" xmlns="http://www.w3.org/2000/svg">
<circle cx="65" cy="65" r="65" fill="#222222"/>
<path d="M125 65C125 98.1371 98.1371 125 65 125C31.8629 125 5 98.1371 5 65C5 31.8629 31.8629 5 65 5C98.1371 5 125 31.8629 125 65Z" fill="#222222"/>
<path fill-rule="evenodd" clip-rule="evenodd" d="M65 123.5C97.3087 123.5 123.5 97.3087 123.5 65C123.5 32.6913 97.3087 6.5 65 6.5C32.6913 6.5 6.5 32.6913 6.5 65C6.5 97.3087 32.6913 123.5 65 123.5ZM65 125C98.1371 125 125 98.1371 125 65C125 31.8629 98.1371 5 65 5C31.8629 5 5 31.8629 5 65C5 98.1371 31.8629 125 65 125Z" fill="#E6D391"/>
<path fill-rule="evenodd" clip-rule="evenodd" d="M46.5425 35.5H81.5575V36H82.05V38.0775C82.05 40.5384 84.0532 42.535 86.5075 42.535H89.0925V66.135C89.0925 77.2518 82.9181 87.2425 72.9836 92.2097L64.8354 96.2875L64.8313 96.2896L64.3081 96.5576L63.7612 96.2972L55.6089 92.2172C55.6088 92.2172 55.6089 92.2172 55.6089 92.2172C45.6745 87.2499 39.5 77.2592 39.5 66.1425V42.5425H42.085C44.5459 42.5425 46.5425 40.5394 46.5425 38.085V35.5ZM48.2325 37.1975H80.36V38.085C80.36 41.4741 83.1193 44.2325 86.515 44.2325H87.4025V66.135C87.4025 76.6033 81.5918 86.015 72.229 90.6927L64.3 94.6609L56.3713 90.6929C47.0157 86.0151 41.1975 76.6032 41.1975 66.135V44.2325H42.085C45.4736 44.2325 48.2325 41.4736 48.2325 38.085V37.1975Z" fill="#EFEFEF"/>
<path d="M64.5035 40H50.4999C50.4999 43.6552 47.5788 46.5877 44 46.5877V66.2456C44 75.6606 49.2332 84.2547 57.5467 88.4711L64.5035 92L71.4533 88.4781C79.7738 84.2617 85 75.6676 85 66.2526V46.5877C81.4282 46.5877 78.5001 43.6552 78.5001 40H64.5035Z" fill="#EFEFEF"/>
<path d="M76 57.7251L73.3084 55L60 68.5498L54.6916 63.1753L52 65.9004L60 74L76 57.7251Z" fill="black"/>
</svg>
