<svg width="130" height="130" viewBox="0 0 130 130" fill="none" xmlns="http://www.w3.org/2000/svg">
<circle cx="65" cy="65" r="65" fill="#222222"/>
<path d="M125 65C125 98.1371 98.1371 125 65 125C31.8629 125 5 98.1371 5 65C5 31.8629 31.8629 5 65 5C98.1371 5 125 31.8629 125 65Z" fill="#222222"/>
<path fill-rule="evenodd" clip-rule="evenodd" d="M65 123.5C97.3087 123.5 123.5 97.3087 123.5 65C123.5 32.6913 97.3087 6.5 65 6.5C32.6913 6.5 6.5 32.6913 6.5 65C6.5 97.3087 32.6913 123.5 65 123.5ZM65 125C98.1371 125 125 98.1371 125 65C125 31.8629 98.1371 5 65 5C31.8629 5 5 31.8629 5 65C5 98.1371 31.8629 125 65 125Z" fill="#E6D391"/>
<path d="M53.1754 35.128C51.4177 35.5308 49.4524 36.6537 48.3411 37.8867C47.9873 38.2773 47.4258 39.0341 47.1081 39.5594C44.045 44.6373 44.301 49.9718 48.0001 58.6019C48.7079 60.2378 49.0011 61.0919 49.0501 61.5682C49.0746 61.9344 49.1842 64.2413 49.2822 66.6952C49.734 77.5839 50.0144 81.2096 50.686 84.542C51.2842 87.4838 51.8456 89.4614 52.6636 91.5124C53.5544 93.7342 53.8966 94.2711 54.7023 94.674C55.508 95.0891 55.9599 95.1013 56.6676 94.7475C57.5584 94.2956 57.6442 94.0275 57.9007 91.0122C58.816 80.099 60.5615 73.7145 63.406 70.8584C64.0776 70.1745 64.7609 69.7478 65.1515 69.7478C66.1525 69.7478 67.8123 71.4204 68.8623 73.4953C70.7057 77.1694 72.0851 84.0302 72.5976 92.0867C72.6588 92.8924 72.7684 93.564 72.9025 93.8811C73.4155 95.0652 74.9896 95.3462 76.162 94.4548C77.4196 93.5028 79.6408 86.5691 80.2151 81.7716C80.5077 79.3422 80.8132 74.3255 81.1426 66.5127C81.24 64.0956 81.3502 61.8254 81.3869 61.4587C81.4359 61.0436 81.704 60.2623 82.1436 59.2613C85.6346 51.3879 86.294 46.0657 84.3165 41.5124C82.9249 38.2896 81.0453 36.4223 78.1518 35.3967C77.212 35.0674 76.9677 35.0306 75.6496 35.0306C74.4655 35.0306 73.7333 35.1163 71.8653 35.4825C68.0443 36.2147 67.2147 36.3249 65.3345 36.3371C63.3447 36.3371 62.588 36.2514 58.9256 35.5559C55.9954 34.9939 54.2866 34.8714 53.1754 35.128Z" fill="#EFEFEF"/>
<path d="M95 26L96.994 34.006L105 36L96.994 37.994L95 46L93.006 37.994L85 36L93.006 34.006L95 26Z" fill="#EFEFEF"/>
</svg>
