<svg width="101" height="50" viewBox="0 0 101 50" fill="none" xmlns="http://www.w3.org/2000/svg">
<g clip-path="url(#clip0_805_2468)">
<rect x="0.5" y="0.5" width="100" height="49" rx="5.5" fill="#EFEFEF" stroke="#D9D9D9"/>
<g clip-path="url(#clip1_805_2468)">
<g clip-path="url(#clip2_805_2468)">
<path d="M16.3521 15.0001L11 34.9999H15.9199L21.2656 15.0001H16.3521ZM37.9865 15.0001H31.7068L23.6452 21.3767L23.6424 21.3722L19.6633 24.5261L27.311 34.9997H33.5911L25.942 24.5245L37.9865 15.0001ZM83.9979 19.2746C84.0916 19.1438 84.0453 18.9863 83.929 18.8297L80.8443 14.9999H64.8137L63.6308 19.4529H83.5835C83.7403 19.453 83.883 19.435 83.9977 19.2746H83.9979ZM40.2631 30.1809C40.0924 29.9356 40.0496 29.6214 40.1329 29.3024L42.4171 20.7756C42.5029 20.4422 42.7281 20.1016 43.0564 19.8394C43.3847 19.5772 43.7563 19.4525 44.0919 19.4525H60.6873L61.8798 14.9995H44.8009C43.3305 14.9995 41.7033 15.56 40.2862 16.6868C38.8592 17.8132 37.8983 19.2924 37.5047 20.7582L35.2256 29.3037C34.8325 30.761 34.9992 32.2203 35.813 33.3346C36.62 34.4455 37.9245 35.0001 39.382 35.0001H56.5256L57.7209 30.5427H41.0489C40.7278 30.5427 40.4438 30.4225 40.2631 30.1809ZM87.1036 22.7774H62.7477L61.5673 27.2225H85.9493L89.0965 25.25L87.1036 22.7774ZM78.8982 30.5467H60.6836L59.501 34.9999H73.4981L79.2366 31.3984C79.4099 31.2943 79.4758 31.0373 79.396 30.8462C79.3317 30.6918 79.2227 30.5474 78.8982 30.5474V30.5467Z" fill="#F47920"/>
</g>
</g>
</g>
<defs>
<clipPath id="clip0_805_2468">
<rect width="101" height="50" fill="white"/>
</clipPath>
<clipPath id="clip1_805_2468">
<rect width="78.0952" height="20" fill="white" transform="translate(11 15)"/>
</clipPath>
<clipPath id="clip2_805_2468">
<rect width="78.0952" height="20" fill="white" transform="translate(11 15)"/>
</clipPath>
</defs>
</svg>
