<svg width="25" height="25" viewBox="0 0 25 25" fill="none" xmlns="http://www.w3.org/2000/svg">
<g clip-path="url(#clip0_580_1152)">
<path d="M0 12.5C0 19.4036 5.59644 25 12.5 25C19.4036 25 25 19.4036 25 12.5C25 5.59644 19.4036 0 12.5 0C5.59644 0 0 5.59644 0 12.5Z" fill="#61A8DE"/>
<path d="M18.5373 6.04933L4.81864 11.3954C4.37429 11.5685 4.40121 12.2062 4.85861 12.3412L8.34468 13.3707L9.64568 17.4989C9.78159 17.9301 10.328 18.0608 10.6444 17.7378L12.4468 15.8975L15.9832 18.4933C16.416 18.811 17.0323 18.575 17.1422 18.0495L19.4844 6.85138C19.5991 6.30286 19.0595 5.84586 18.5373 6.04933ZM16.8174 8.53448L10.4451 14.1695C10.3816 14.2256 10.3412 14.3034 10.3317 14.3877L10.0864 16.5686C10.0784 16.6397 9.97885 16.6491 9.9576 16.5808L8.94821 13.3283C8.90198 13.1793 8.96225 13.018 9.09474 12.9359L16.6197 8.26879C16.7928 8.16138 16.9699 8.39961 16.8174 8.53448Z" fill="white"/>
</g>
<defs>
<clipPath id="clip0_580_1152">
<rect width="25" height="25" fill="white"/>
</clipPath>
</defs>
</svg>
