<svg width="101" height="50" viewBox="0 0 101 50" fill="none" xmlns="http://www.w3.org/2000/svg">
<g clip-path="url(#clip0_805_3278)">
<rect x="0.5" y="0.5" width="100" height="49" rx="5.5" fill="#EFEFEF" stroke="#D9D9D9"/>
<g clip-path="url(#clip1_805_3278)">
<path d="M59.425 15C55.0182 15 51.08 17.2717 51.08 21.4689C51.08 26.2822 58.0645 26.6147 58.0645 29.0328C58.0645 30.051 56.8913 30.9624 54.8875 30.9624C52.0438 30.9624 49.9184 29.6889 49.9184 29.6889L49.0089 33.9243C49.0089 33.9243 51.4574 35 54.7081 35C59.5261 35 63.3174 32.6167 63.3174 28.3478C63.3174 23.2616 56.3038 22.939 56.3038 20.6946C56.3038 19.8971 57.2669 19.0232 59.2649 19.0232C61.5193 19.0232 63.3586 19.9493 63.3586 19.9493L64.2486 15.8587C64.2486 15.8587 62.2473 15 59.425 15ZM19.1067 15.3087L19 15.9262C19 15.9262 20.854 16.2637 22.5238 16.9368C24.6738 17.7087 24.8269 18.1581 25.189 19.5538L29.1347 34.6816H34.424L42.5726 15.3087H37.2954L32.0595 28.4805L29.9229 17.3155C29.727 16.0377 28.7345 15.3087 27.5196 15.3087H19.1067ZM44.6946 15.3087L40.5548 34.6816H45.587L49.7122 15.3087H44.6946ZM72.761 15.3087C71.5475 15.3087 70.9046 15.9549 70.4328 17.0839L63.0603 34.6816H68.3375L69.3585 31.7487H75.7876L76.4084 34.6816H81.0647L77.0026 15.3087H72.761ZM73.4473 20.5427L75.0115 27.8124H70.8208L73.4473 20.5427Z" fill="#1434CB"/>
</g>
</g>
<defs>
<clipPath id="clip0_805_3278">
<rect width="101" height="50" fill="white"/>
</clipPath>
<clipPath id="clip1_805_3278">
<rect width="63" height="20" fill="white" transform="translate(19 15)"/>
</clipPath>
</defs>
</svg>
