<svg width="25" height="25" viewBox="0 0 25 25" fill="none" xmlns="http://www.w3.org/2000/svg">
<g clip-path="url(#clip0_580_1156)">
<path d="M0 12.5C0 19.4036 5.59644 25 12.5 25C19.4036 25 25 19.4036 25 12.5C25 5.59644 19.4036 0 12.5 0C5.59644 0 0 5.59644 0 12.5Z" fill="#1BD741"/>
<path d="M6 19.0076L6.97995 15.5271C6.34979 14.4566 6.018 13.2385 6.018 11.9872C6.018 8.13446 9.15246 5 13.0052 5C16.858 5 19.9924 8.13446 19.9924 11.9872C19.9924 15.84 16.858 18.9745 13.0052 18.9745C11.8047 18.9745 10.6292 18.6672 9.58929 18.0837L6 19.0076ZM9.77279 16.8125L9.98667 16.9431C10.8933 17.4966 11.9372 17.7892 13.0052 17.7892C16.2044 17.7892 18.8072 15.1864 18.8072 11.9872C18.8072 8.78803 16.2044 6.18527 13.0052 6.18527C9.80602 6.18527 7.20326 8.78803 7.20326 11.9872C7.20326 13.102 7.52008 14.1845 8.11939 15.1177L8.26342 15.342L7.6991 17.3463L9.77279 16.8125Z" fill="white"/>
<path d="M11.0425 8.73501L10.5891 8.71029C10.4467 8.70252 10.307 8.75011 10.1994 8.84361C9.9796 9.03449 9.62815 9.4035 9.5202 9.88437C9.35922 10.6014 9.608 11.4793 10.2519 12.3573C10.8957 13.2353 12.0956 14.64 14.2174 15.24C14.9011 15.4333 15.4389 15.303 15.8539 15.0376C16.1826 14.8273 16.4091 14.4899 16.4908 14.1084L16.5632 13.7703C16.5862 13.6628 16.5316 13.5538 16.4318 13.5078L14.8995 12.8015C14.8 12.7557 14.6821 12.7846 14.6152 12.8713L14.0136 13.6511C13.9682 13.7101 13.8904 13.7334 13.8202 13.7087C13.4082 13.564 12.0283 12.986 11.2711 11.5275C11.2383 11.4643 11.2465 11.3875 11.2931 11.3336L11.8679 10.6685C11.9267 10.6006 11.9415 10.5051 11.9062 10.4226L11.2457 8.87728C11.2106 8.79502 11.1318 8.73988 11.0425 8.73501Z" fill="white"/>
</g>
<defs>
<clipPath id="clip0_580_1156">
<rect width="25" height="25" fill="white"/>
</clipPath>
</defs>
</svg>
