<svg width="1400" height="158" viewBox="0 0 1400 158" fill="none" xmlns="http://www.w3.org/2000/svg">
<path d="M86.1957 51.9873H84.4718L31.8471 132H0V0.946289H33.208V81.0498H34.9319L87.5567 0.946289H119.404V132H86.1957V51.9873Z" fill="#EFEFEF"/>
<path d="M190.901 73.5117C189.933 88.1641 187.332 98.124 183.098 103.392V105.117H230.642V27.6475H193.895L190.901 73.5117ZM169.307 157.884H139.365V105.117H148.257C152.491 101.848 155.485 97.4883 157.239 92.0391C158.751 87.377 159.81 80.2324 160.415 70.6055L164.77 0.946289H263.85V105.117H280.181V157.884H250.24V132H169.307V157.884Z" fill="#EFEFEF"/>
<path d="M392.599 132H302.865V0.946289H392.599V27.7383H336.163V53.8945H389.242V78.416H336.163V105.208H392.599V132Z" fill="#EFEFEF"/>
<path d="M498.211 103.21H455.476L447.038 132H414.012L457.926 0.946289H498.665L542.67 132H506.377L498.211 103.21ZM461.828 79.2334H491.951L477.887 30.4629H476.163L461.828 79.2334Z" fill="#EFEFEF"/>
<path d="M644.2 132V27.7383H611.173L608.542 78.7793C607.695 96.2168 604.217 109.386 598.108 118.286C591.212 128.276 580.808 133.271 566.896 133.271C561.936 133.271 558.034 132.848 555.191 132V103.028C558.095 103.573 560.333 103.846 561.905 103.846C567.712 103.846 571.916 101.212 574.517 95.9443C576.513 91.7666 577.723 85.2275 578.146 76.3271L581.594 0.946289H677.498V132H644.2Z" fill="#EFEFEF"/>
<path d="M755.8 132V0.946289H843.72V27.7383H789.099V132H755.8Z" fill="#EFEFEF"/>
<path d="M927.466 0.946289C941.56 0.946289 952.932 5.18457 961.581 13.6611C970.292 22.1377 974.647 33.3994 974.647 47.4463C974.647 61.3115 970.08 72.4824 960.946 80.959C951.933 89.375 940.108 93.583 925.47 93.583H903.422V132H870.123V0.946289H927.466ZM903.422 68.4258H918.483C925.621 68.4258 931.156 66.6396 935.088 63.0674C939.019 59.4951 940.985 54.3184 940.985 47.5371C940.985 40.6953 939.019 35.458 935.088 31.8252C931.277 28.3135 925.803 26.5576 918.665 26.5576H903.422V68.4258Z" fill="#EFEFEF"/>
<path d="M1019.92 133.362C1012.42 133.362 1007.95 132.878 1006.49 131.909V105.571C1008.13 106.116 1010.91 106.389 1014.84 106.389C1022.52 106.389 1028.18 103.937 1031.81 99.0322L988.983 0.946289H1024.19L1048.68 67.4268H1050.41L1073.73 0.946289H1108.84L1068.74 94.4912C1063.11 107.69 1056.94 117.196 1050.23 123.009C1042.36 129.911 1032.26 133.362 1019.92 133.362Z" fill="#EFEFEF"/>
<path d="M1216.54 132V27.7383H1165.46V132H1132.16V0.946289H1249.75V132H1216.54Z" fill="#EFEFEF"/>
<path d="M1366.79 132V27.7383H1315.71V132H1282.41V0.946289H1400V132H1366.79Z" fill="#EFEFEF"/>
</svg>
