<svg width="81" height="45" viewBox="0 0 81 45" fill="none" xmlns="http://www.w3.org/2000/svg">
<path d="M21.574 37.8997C21.0072 37.7402 20.4936 37.4575 20.0769 37.0288C19.6139 36.5537 19.3191 35.9455 19.1634 35.273L24.3583 30.5095C24.6452 30.3195 25.2204 30.2277 25.5972 30.5568C27.1857 31.9483 26.8111 32.8113 26.6452 33.0314C26.6206 33.0694 21.574 37.8995 21.574 37.8995L21.574 37.8997ZM29.8239 34.466C29.3618 34.0766 28.4714 33.9705 27.9634 34.3353L23.1702 38.8707C23.3533 39.4617 23.6513 39.9975 24.0754 40.4317C24.5167 40.8841 25.059 41.1831 25.6518 41.3509L30.3966 36.5054C30.5964 36.2171 30.57 35.0959 29.8238 34.4659L29.8239 34.466ZM33.3071 38.3218C32.5859 37.6512 31.8999 37.7402 31.6408 37.8074L27.1731 42.3696C27.3743 42.9179 28.9209 45 30.8352 45C32.9947 45 34.179 43.4093 34.2067 43.375C34.3551 41.8052 34.2424 39.1904 33.3071 38.3219V38.3218ZM20.7259 27.6821C19.9996 27.1635 19.3859 27.1736 18.8366 27.6951L15.7673 30.3116C15.8962 31.2901 16.298 32.1832 16.9687 32.8715C17.3228 33.2358 17.7358 33.5144 18.1808 33.7202L22.3853 29.741C22.2379 29.3257 21.8208 28.4622 20.726 27.6821L20.7259 27.6821ZM49.5809 3.202C46.169 2.81266 39.3092 4.25739 38.5601 4.90864C35.7333 7.36377 29.392 10.2018 29.392 10.2018C29.3804 11.2266 29.5255 13.4705 30.8803 14.7835C33.1515 16.9838 38.327 14.1823 40.1304 12.9174L40.4266 12.7088C40.4266 12.7088 44.3136 13.526 45.6137 14.4933C47.3565 15.7902 56.1594 24.5514 59.6402 28.0344C59.6402 27.9779 59.648 27.9195 59.6462 27.8629L64.7294 24.7681L59.3389 6.3051C56.5332 4.43673 51.6461 3.43787 49.5803 3.20246L49.5809 3.202ZM80.777 19.7535L75.5427 0.763595C75.4597 0.462775 74.4354 -0.0924923 74.1582 0.0131836C74.1582 0.0131836 61.4263 4.88275 61.3349 4.95976C61.321 4.95049 61.3062 4.94168 61.2923 4.93195L66.6829 23.395L66.9225 23.249C66.9225 23.249 67.8384 25.2559 68.0873 25.3723L69.0917 25.8405C69.3401 25.9573 69.6229 25.9675 69.8792 25.8701L79.6095 22.1835C79.8672 22.0861 80.8535 20.0319 80.7771 19.7534L80.777 19.7535ZM40.7813 14.673C39.3 15.6413 33.0486 19.3933 29.7063 16.1544C27.253 13.7761 27.6651 9.62632 27.6836 9.45119L27.7429 8.89637L30.6412 7.68713L30.181 7.17496L15.7036 4.13996L11.273 29.5005C12.3747 29.596 13.2823 29.6729 13.6916 29.7035L17.8149 26.1883C18.1722 25.8703 19.9692 24.9113 21.6958 26.141C22.8578 26.9693 23.4868 27.9182 23.8195 28.6258C24.6877 28.3681 25.8046 28.3375 26.7048 29.1259C27.9993 30.2592 28.4433 31.4198 28.4897 32.3659C29.2476 32.2982 30.176 32.3965 30.9074 33.0134C31.9363 33.8806 32.1839 35.0287 32.1899 35.9163C32.8421 35.9478 33.6546 36.1815 34.4541 36.9244C36.4292 38.7581 35.898 43.8576 35.8868 43.9021C37.123 44.3772 41.0605 44.3049 42.4278 42.2288L36.5501 37.5052C36.1659 37.196 36.0898 36.6148 36.38 36.2055C36.6706 35.7976 37.2162 35.7151 37.6018 36.0247L44.4881 41.559C45.4776 41.4561 46.3365 41.255 47.0271 40.9393C48.1919 40.4081 48.8658 39.6716 49.2556 38.9852L41.6958 32.91C41.3116 32.6013 41.2356 32.0196 41.5262 31.6118C41.8145 31.2039 42.3623 31.1214 42.7466 31.431L50.7128 37.8325C51.5527 37.4366 52.4061 36.9476 53.066 36.3512C53.6876 35.7889 54.1465 35.0983 54.4515 34.2941L46.9506 28.2662C46.5663 27.9575 46.4903 27.3758 46.7805 26.968C47.0697 26.5592 47.6166 26.4785 48.0013 26.7872L56.0177 33.23C56.9252 32.9203 57.772 32.5138 58.2722 31.9817C58.858 31.3587 59.1589 30.8197 59.3327 30.275C54.6433 25.5701 46.1819 17.1812 44.6145 16.0137C43.9289 15.5015 42.03 14.9536 40.7812 14.6722L40.7813 14.673ZM5.24826 1.8035C4.96692 1.75252 3.82343 2.38334 3.77573 2.68091L0.0157296 25.8902C-0.0347922 26.2012 0.0375138 26.5183 0.216426 26.7695C0.216426 26.7695 1.39976 28.2004 1.70284 28.2267C1.75336 28.2309 6.01199 28.6119 8.91778 28.8631L13.3484 3.50255L5.24826 1.8035Z" fill="#EFEFEF"/>
</svg>
