<svg width="51" height="62" viewBox="0 0 51 62" fill="none" xmlns="http://www.w3.org/2000/svg">
<path fill-rule="evenodd" clip-rule="evenodd" d="M7.5425 0.5H42.5575V1H43.05V3.0775C43.05 5.53837 45.0532 7.535 47.5075 7.535H50.0925V31.135C50.0925 42.2518 43.9181 52.2425 33.9836 57.2097L25.8354 61.2875L25.8313 61.2896L25.3081 61.5576L24.7612 61.2972L16.6089 57.2172C16.6088 57.2172 16.6089 57.2172 16.6089 57.2172C6.67451 52.2499 0.5 42.2592 0.5 31.1425V7.5425H3.085C5.54586 7.5425 7.5425 5.53935 7.5425 3.085V0.5ZM9.2325 2.1975H41.36V3.085C41.36 6.47407 44.1193 9.2325 47.515 9.2325H48.4025V31.135C48.4025 41.6033 42.5918 51.015 33.229 55.6927L25.3 59.6609L17.3713 55.6929C8.01571 51.0151 2.1975 41.6032 2.1975 31.135V9.2325H3.085C6.47364 9.2325 9.2325 6.47364 9.2325 3.085V2.1975Z" fill="#EFEFEF"/>
<path d="M25.5035 5H11.4999C11.4999 8.65515 8.57876 11.5877 5 11.5877V31.2456C5 40.6606 10.2332 49.2547 18.5467 53.4711L25.5035 57L32.4533 53.4781C40.7738 49.2617 46 40.6676 46 31.2526V11.5877C42.4282 11.5877 39.5001 8.65515 39.5001 5H25.5035Z" fill="#EFEFEF"/>
<path d="M37 22.7251L34.3084 20L21 33.5498L15.6916 28.1753L13 30.9004L21 39L37 22.7251Z" fill="black"/>
</svg>
