<svg width="63" height="60" viewBox="0 0 63 60" fill="none" xmlns="http://www.w3.org/2000/svg">
<path d="M54.7748 35.1725C54.6341 32.9132 54.0424 30.779 53.0824 28.8528L49.5455 30.8949L48.511 29.1032L52.0562 27.057C50.8344 25.2239 49.26 23.6484 47.4269 22.4277L45.3806 25.9718L43.5889 24.9373L45.631 21.4015C43.7048 20.4415 41.5706 19.8497 39.3113 19.709V23.7932H37.2424V19.708C34.9831 19.8487 32.8489 20.4404 30.9227 21.4004L32.9596 24.929L31.1679 25.9635L29.1258 22.4277C27.2927 23.6484 25.7172 25.2239 24.4965 27.057L28.0417 29.1032L27.0072 30.8949L23.4703 28.8528C22.5103 30.779 21.9186 32.9132 21.7779 35.1725H25.862V37.2415H21.7769C21.9175 39.5008 22.5093 41.6349 23.4693 43.5611L27.0062 41.519L28.0406 43.3108L24.4955 45.357C25.7172 47.1901 27.2917 48.7656 29.1248 49.9863L31.1669 46.4504L32.9586 47.4849L30.9217 51.0135C32.8479 51.9735 34.981 52.5653 37.2413 52.7059V48.6208H39.3103V52.7059C41.5696 52.5653 43.7038 51.9735 45.6289 51.0135L43.5869 47.4777L45.3786 46.4432L47.4248 49.9873C49.2579 48.7656 50.8334 47.1911 52.0541 45.358L48.5089 43.3118L49.5434 41.5201L53.0803 43.5621C54.0403 41.6359 54.632 39.5028 54.7727 37.2425H50.6896V35.1735H54.7748V35.1725ZM41.8272 34.1184C42.1913 34.7339 42.4138 35.4415 42.4138 36.207C42.4138 38.489 40.5579 40.3449 38.2758 40.3449C35.9938 40.3449 34.1379 38.489 34.1379 36.207C34.1379 33.9249 35.9938 32.069 38.2758 32.069C39.0413 32.069 39.7489 32.2915 40.3644 32.6556L44.7848 28.2342L46.2475 29.697L41.8272 34.1184Z" fill="#EFEFEF"/>
<path d="M47.5861 14.0544V1.46265L45.5171 3.53161V16.1233L47.5861 14.0544Z" fill="#EFEFEF"/>
<path d="M35.7788 0H28.3595L26.2905 2.06897H33.7098L35.7788 0Z" fill="#EFEFEF"/>
<path d="M38.276 38.2759C39.4187 38.2759 40.345 37.3496 40.345 36.2069C40.345 35.0642 39.4187 34.1379 38.276 34.1379C37.1333 34.1379 36.207 35.0642 36.207 36.2069C36.207 37.3496 37.1333 38.2759 38.276 38.2759Z" fill="#EFEFEF"/>
<path d="M24.8276 17.5862H43.4483V4.13794H35.1725V9.31035H33.1035V4.13794H24.8276V17.5862Z" fill="#EFEFEF"/>
<path d="M36.6353 2.06897H44.0546L46.1235 0H38.7042L36.6353 2.06897Z" fill="#EFEFEF"/>
<path d="M5.17236 34.1379H7.24133V36.2069H5.17236V34.1379Z" fill="#EFEFEF"/>
<path d="M0 38.2759H2.06897V40.3448H0V38.2759Z" fill="#EFEFEF"/>
<path d="M4.1377 8.27588H16.5515V10.3448H4.1377V8.27588Z" fill="#EFEFEF"/>
<path d="M0 8.27588H2.06897V10.3448H0V8.27588Z" fill="#EFEFEF"/>
<path d="M6.20703 12.4138H8.276V14.4828H6.20703V12.4138Z" fill="#EFEFEF"/>
<path d="M10.3447 12.4138H23.793V14.4828H10.3447V12.4138Z" fill="#EFEFEF"/>
<path d="M55.4822 22.9532C58.4377 26.7839 59.9998 31.3666 59.9998 36.207C59.9998 48.1852 50.2549 57.9311 38.2756 57.9311C27.4632 57.9311 18.2108 49.8652 16.7511 39.1707C16.6818 38.6576 16.2442 38.2759 15.727 38.2759H4.1377V40.3449H14.8415C16.8194 51.6125 26.737 60.0001 38.2756 60.0001C51.3949 60.0001 62.0687 49.3273 62.0687 36.207C62.0687 30.9052 60.3577 25.8839 57.1198 21.688L55.4822 22.9532Z" fill="#EFEFEF"/>
<path d="M16.5737 35.2189C16.8478 29.0875 19.7319 23.3296 24.4864 19.4203L23.1726 17.822C18.2216 21.8927 15.1233 27.7955 14.5719 34.1379H9.31055V36.2069H15.5402C16.0947 36.2069 16.5499 35.7713 16.5737 35.2189Z" fill="#EFEFEF"/>
<path d="M52.019 19.3555L53.482 17.8925L55.5507 19.9611L54.0877 21.4241L52.019 19.3555Z" fill="#EFEFEF"/>
</svg>
