<svg width="41" height="60" viewBox="0 0 41 60" fill="none" xmlns="http://www.w3.org/2000/svg">
<path d="M8.17541 0.127972C6.41766 0.530827 4.45236 1.65368 3.34114 2.88674C2.98727 3.27735 2.42584 4.03408 2.10809 4.55938C-0.954956 9.63732 -0.699039 14.9718 3.00013 23.6019C3.70788 25.2378 4.00114 26.0919 4.05012 26.5682C4.07461 26.9344 4.1842 29.2413 4.28216 31.6952C4.734 42.5839 5.0144 46.2096 5.68603 49.542C6.28419 52.4838 6.84562 54.4614 7.66357 56.5124C8.55438 58.7342 8.89663 59.2711 9.70234 59.674C10.508 60.0891 10.9599 60.1013 11.6676 59.7475C12.5584 59.2956 12.6442 59.0275 12.9007 56.0122C13.816 45.099 15.5615 38.7145 18.406 35.8584C19.0776 35.1745 19.7609 34.7478 20.1515 34.7478C21.1525 34.7478 22.8123 36.4204 23.8623 38.4953C25.7057 42.1694 27.0851 49.0302 27.5976 57.0867C27.6588 57.8924 27.7684 58.564 27.9025 58.8811C28.4155 60.0652 29.9896 60.3462 31.162 59.4548C32.4196 58.5028 34.6408 51.5691 35.2151 46.7716C35.5077 44.3422 35.8132 39.3255 36.1426 31.5127C36.24 29.0956 36.3502 26.8254 36.3869 26.4587C36.4359 26.0436 36.704 25.2623 37.1436 24.2613C40.6346 16.3879 41.294 11.0657 39.3165 6.51243C37.9249 3.28959 36.0453 1.42225 33.1518 0.396748C32.212 0.0673599 31.9677 0.0306282 30.6496 0.0306282C29.4655 0.0306282 28.7333 0.116341 26.8653 0.48246C23.0443 1.2147 22.2147 1.32491 20.3345 1.33715C18.3447 1.33715 17.588 1.25144 13.9256 0.555931C10.9954 -0.00610733 9.28663 -0.128559 8.17541 0.127972Z" fill="#EFEFEF"/>
</svg>
